/* XPM */
static char *YmFja2dyb3VuZA__[] = {
/* columns rows colors chars-per-pixel */
"32 32 2 1 ",
"  c #5068D0",
". c #6880D0",
/* pixels */
"       .               .        ",
"        .               .       ",
"        .               .       ",
"         .               .      ",
"         .               .      ",
"          .               .     ",
"           ..              ..   ",
"             ..              .. ",
"               .               .",
".               .               ",
".               .               ",
" .               .              ",
" .               .              ",
"  .               .             ",
"   ..              ..           ",
"     ..              ..         ",
"       .               .        ",
"        .               .       ",
"        .               .       ",
"         .               .      ",
"         .               .      ",
"          .               .     ",
"           ..              ..   ",
"             ..              .. ",
"               .               .",
".               .               ",
".               .               ",
" .               .              ",
" .               .              ",
"  .               .             ",
"   ..              ..           ",
"     ..              ..         "
};
