/* XPM */
static char *_3a47dbc065249b687062807b16605f3rDrGm5GiHTszAbgI[] = {
/* columns rows colors chars-per-pixel */
"32 32 9 1 ",
"  c black",
". c #442434",
"X c #854C30",
"o c #D27D2C",
"O c #5068D0",
"+ c #6880D0",
"@ c #6DC2CA",
"# c #D2AA99",
"$ c #DEEED6",
/* pixels */
"OOOOOOO+OOO@@XXoo  @@OO+OOOOOOOO",
"OOOOOOOO+OO@@XXoo  @@OOO+OOOOOOO",
"OOOOOOOO+@@XXoooooo  @@O+OOOOOOO",
"OOOOOOOOO@@XXoooooo  @@OO+OOOOOO",
"OOOOOOO$$XXooXXooXXoo  $$+OOOOOO",
"OOOOOOO$$XXooXXooXXoo  $$O+OOOOO",
"OOOOO$$@@XXooXXooXXoo  @@$$++OOO",
"OOOOO$$@@XXooXXooXXoo  @@$$OO++O",
"OOOOO@@XXoooooooooooooo  @@OOOO+",
"+OOOO@@XXoooooooooooooo  @@OOOOO",
"+OO@@OOXXoo..XXXXXX##oo  OO@@OOO",
"O+O@@OOXXoo..XXXXXX##oo  OO@@OOO",
"O@@OOOOXXoo..oooooo##oo  OOOO@@O",
"O@@OOOOXXoo..oooooo##oo  OOOO@@O",
"OOO++OOXXoo..oooooo##oo  OOOOOOO",
"OOOOO++XXoo..oooooo##oo  OOOOOOO",
"OOOOOOOXXooooXXXXXXoooo  OOOOOOO",
"OOOOOOOXXooooXXXXXXoooo  OOOOOOO",
"OOOOOOOXXoo########..oo  OOOOOOO",
"OOOOOOOXXoo########..oo  +OOOOOO",
"OOOOOOOXXoo##oooooo..XX  +OOOOOO",
"OOOOOOOXXoo##oooooo..XX  O+OOOOO",
"OOOOOOOXXoo##ooXXoo..XX  OO++OOO",
"OOOOOOOXXoo##ooXXoo..XX  OOOO++O",
"OOOOOOOXXoo##oooooo..XX  OOOOOO+",
"+OOOOOOXXoo##oooooo..XX  OOOOOOO",
"+OOOOOOXXoo..........XX  OOOOOOO",
"O+OOOOOXXoo..........XX  OOOOOOO",
"O+OOOOOXXooooXXXXXXXXXX  OOOOOOO",
"OO+OOOOXXooooXXXXXXXXXX  OOOOOOO",
"OOO++OOOOXX          XXOOOOOOOOO",
"OOOOO++OOXX          XXOOOOOOOOO"
};
